<svg version="1.1" id="Layer_1" xmlns="http://www.w3.org/2000/svg" xmlns:xlink="http://www.w3.org/1999/xlink" x="0px" y="0px"
	 width="100%" viewBox="0 0 677 133" enable-background="new 0 0 677 133" xml:space="preserve">
<path fill="#FDFEFE" opacity="1.000000" stroke="none" 
	d="
M502.000000,134.000000 
	C334.666656,134.000000 167.833328,134.000000 1.000000,134.000000 
	C1.000000,89.666664 1.000000,45.333332 1.000000,1.000000 
	C226.666672,1.000000 452.333344,1.000000 678.000000,1.000000 
	C678.000000,45.333332 678.000000,89.666664 678.000000,134.000000 
	C619.500000,134.000000 561.000000,134.000000 502.000000,134.000000 
M11.457769,86.820503 
	C11.766435,92.545021 14.288704,97.001587 19.270899,99.869865 
	C31.212395,106.744652 43.248817,113.455498 55.154068,120.391884 
	C60.936054,123.760651 66.384193,123.541954 72.083755,120.215134 
	C83.546097,113.524628 95.051926,106.903091 106.660835,100.471542 
	C112.661232,97.147194 115.632683,92.198616 115.680122,85.526222 
	C115.774834,72.205338 115.746384,58.882778 115.653473,45.561714 
	C115.611755,39.579700 113.562019,34.444019 108.132317,31.311708 
	C96.211914,24.435011 84.155884,17.790928 72.297577,10.810055 
	C65.957497,7.077706 60.034569,7.637883 53.950161,11.175640 
	C43.053448,17.511496 32.219147,23.968321 21.143366,29.977589 
	C14.187370,33.751629 11.189253,39.306934 11.242484,46.975456 
	C11.332644,59.963638 11.313701,72.952576 11.457769,86.820503 
M298.148499,44.191109 
	C293.366608,44.191109 288.584717,44.191109 283.563873,44.191109 
	C283.374634,46.665035 283.218719,48.703545 283.042877,51.001987 
	C267.227875,36.430267 249.194855,45.595898 244.311310,57.765228 
	C240.409042,67.489296 240.263565,77.235580 244.652298,86.821381 
	C248.323822,94.840721 254.692810,99.562614 263.456329,100.604912 
	C271.000092,101.502121 277.396545,98.807869 282.936462,92.534584 
	C283.221954,95.504456 283.430756,97.676422 283.622070,99.666794 
	C289.286835,99.666794 294.524536,99.666794 299.986237,99.666794 
	C299.986237,81.702019 299.996979,64.087219 299.947723,46.472591 
	C299.945709,45.754395 299.378906,45.037777 298.148499,44.191109 
M229.883026,67.357872 
	C241.483002,52.821030 235.183884,33.636406 216.909470,30.824436 
	C205.771774,29.110626 194.155334,30.508137 182.563873,30.508137 
	C182.563873,53.521233 182.563873,76.554916 182.563873,99.694458 
	C188.211456,99.694458 193.592911,99.694458 199.362442,99.694458 
	C199.362442,91.297806 199.362442,83.214386 199.362442,74.890686 
	C210.102341,74.641403 220.909866,76.019295 229.883026,67.357872 
M542.200439,74.004959 
	C543.315918,73.688652 544.450256,73.426697 545.543945,73.047562 
	C555.539795,69.582420 560.828918,61.546314 560.260376,50.726036 
	C559.716919,40.383125 553.652588,32.208393 543.080933,31.130436 
	C531.324890,29.931700 519.352417,30.855930 507.485992,30.855930 
	C507.485992,53.680717 507.485992,76.728020 507.485992,99.733551 
	C513.093933,99.733551 518.354309,99.733551 523.991455,99.733551 
	C523.991455,95.503967 523.991455,91.542664 523.991455,87.581360 
	C523.991455,83.468880 523.991455,79.356400 523.991455,75.255188 
	C530.143494,74.838219 535.749939,74.458237 542.200439,74.004959 
M441.359863,100.821129 
	C455.959656,98.887840 465.018829,91.925232 465.962891,81.549072 
	C460.968445,81.549072 455.999115,81.439972 451.041687,81.633942 
	C449.947906,81.676743 448.651367,82.574966 447.867615,83.453468 
	C444.549164,87.173058 440.539978,87.843529 436.079102,86.283012 
	C431.455872,84.665718 429.462067,81.142456 429.323578,75.811897 
	C442.260162,75.811897 455.002411,75.811897 467.660095,75.811897 
	C469.917145,57.411705 459.746002,44.788792 442.202881,43.601650 
	C424.932587,42.432976 412.605591,54.093235 412.473907,71.722641 
	C412.345306,88.937775 422.387665,99.368866 441.359863,100.821129 
M614.497375,89.932304 
	C622.567810,99.570114 634.715942,103.113312 646.900269,99.383080 
	C662.244751,94.685371 670.089783,79.290977 665.400696,63.079365 
	C661.123169,48.290653 645.386353,40.190655 629.443665,44.571613 
	C610.286316,49.835918 602.899048,71.346046 614.497375,89.932304 
M394.665344,64.169106 
	C398.411926,64.169106 402.158539,64.169106 405.998108,64.169106 
	C403.216339,49.680519 391.683289,42.236298 375.414154,43.883427 
	C360.982086,45.344563 351.741394,56.837585 352.011108,72.990746 
	C352.278107,88.978554 362.206055,99.533546 378.158966,100.790009 
	C391.788025,101.863434 403.918365,92.906067 405.909790,79.947479 
	C401.231781,79.947479 396.593506,79.732651 391.994263,80.062416 
	C390.354492,80.180000 388.372253,81.247025 387.296204,82.516357 
	C382.442657,88.241554 373.949310,87.516335 370.770264,80.706093 
	C368.183197,75.164070 368.181854,69.314117 370.658203,63.739487 
	C373.634216,57.040062 382.434479,55.505684 386.608734,61.185318 
	C388.697449,64.027321 390.866821,64.363388 394.665344,64.169106 
M603.705933,54.412903 
	C603.705933,50.987156 603.705933,47.561405 603.705933,43.968102 
	C595.968506,43.556049 591.192505,47.795200 585.983521,53.400532 
	C585.983521,49.573811 585.983521,47.029438 585.983521,44.420616 
	C580.264221,44.420616 575.018494,44.420616 569.604858,44.420616 
	C569.604858,63.028145 569.604858,81.380600 569.604858,99.646469 
	C575.311340,99.646469 580.697144,99.646469 586.169189,99.646469 
	C586.169189,90.793243 586.108398,82.312149 586.186340,73.832329 
	C586.263672,65.419769 589.674683,62.008202 597.971497,61.838863 
	C599.738464,61.802799 601.506714,61.833611 603.706055,61.833611 
	C603.706055,59.287285 603.706055,57.326046 603.705933,54.412903 
M312.721893,80.499588 
	C312.721893,86.909615 312.721893,93.319641 312.721893,99.767242 
	C318.600616,99.767242 323.846527,99.767242 329.285553,99.767242 
	C329.372742,98.738037 329.498383,97.931107 329.500641,97.123833 
	C329.523560,88.972252 329.359650,80.816017 329.584137,72.670357 
	C329.785797,65.354408 333.206360,62.130817 340.461029,61.846832 
	C342.546112,61.765213 344.637146,61.834328 346.779907,61.834328 
	C346.779907,55.511978 346.779907,49.902027 346.779907,44.117462 
	C339.376923,43.206413 334.828156,47.967876 329.776306,52.554283 
	C329.567047,49.394802 329.405457,46.954514 329.238800,44.438347 
	C323.674591,44.438347 318.430237,44.438347 312.721863,44.438347 
	C312.721863,56.291706 312.721863,67.895737 312.721893,80.499588 
M477.735321,60.499916 
	C477.735321,73.562515 477.735321,86.625114 477.735321,99.774338 
	C483.573425,99.774338 488.828827,99.774338 494.275085,99.774338 
	C494.275085,75.183243 494.275085,50.820396 494.275085,26.303677 
	C488.686798,26.303677 483.295227,26.303677 477.735382,26.303677 
	C477.735382,37.571011 477.735382,48.535461 477.735321,60.499916 
z"/>
<path fill="#272F3C" opacity="1.000000" stroke="none" 
	d="
M11.399195,86.380852 
	C11.313701,72.952576 11.332644,59.963638 11.242484,46.975456 
	C11.189253,39.306934 14.187370,33.751629 21.143366,29.977589 
	C32.219147,23.968321 43.053448,17.511496 53.950161,11.175640 
	C60.034569,7.637883 65.957497,7.077706 72.297577,10.810055 
	C84.155884,17.790928 96.211914,24.435011 108.132317,31.311708 
	C113.562019,34.444019 115.611755,39.579700 115.653473,45.561714 
	C115.746384,58.882778 115.774834,72.205338 115.680122,85.526222 
	C115.632683,92.198616 112.661232,97.147194 106.660835,100.471542 
	C95.051926,106.903091 83.546097,113.524628 72.083755,120.215134 
	C66.384193,123.541954 60.936054,123.760651 55.154068,120.391884 
	C43.248817,113.455498 31.212395,106.744652 19.270899,99.869865 
	C14.288704,97.001587 11.766435,92.545021 11.399195,86.380852 
M53.234257,107.326950 
	C54.731495,108.114220 56.228733,108.901489 58.183025,109.929085 
	C58.183025,96.905701 58.249157,84.755753 58.084911,72.608917 
	C58.067719,71.337257 56.990410,69.633202 55.891163,68.898560 
	C50.512608,65.303993 44.983982,61.930607 39.462029,58.554901 
	C33.795265,55.090668 28.074821,51.714249 21.948627,48.042103 
	C21.948627,60.675873 22.064756,72.497879 21.882130,84.315262 
	C21.822680,88.162170 23.335329,90.367180 26.628887,92.172691 
	C35.363319,96.960884 43.936214,102.043755 53.234257,107.326950 
M90.469528,56.951294 
	C83.961449,60.905319 77.423286,64.811531 70.978424,68.866035 
	C70.034874,69.459625 68.932755,70.752502 68.921913,71.733093 
	C68.783348,84.260368 68.830521,96.789688 68.830521,110.022858 
	C80.332024,103.474907 91.149727,97.452751 101.778725,91.114159 
	C103.328278,90.190079 104.862434,87.774429 104.900322,86.016541 
	C105.167892,73.605049 105.042473,61.185085 105.042473,47.977745 
	C99.999557,51.074245 95.539574,53.812809 90.469528,56.951294 
M49.201118,52.341679 
	C52.574421,54.451839 55.779358,56.945564 59.384315,58.527988 
	C61.538975,59.473793 64.640442,59.803272 66.748734,58.971367 
	C70.371384,57.541920 73.550186,54.987652 77.397583,52.607151 
	C68.361069,47.467213 59.291172,43.263634 51.330616,37.522003 
	C42.706352,31.301670 35.358822,30.978491 27.763672,39.106037 
	C34.516823,43.300938 41.532597,47.658974 49.201118,52.341679 
M87.170593,31.310019 
	C80.981537,27.775654 74.885559,24.060106 68.552223,20.806601 
	C66.377449,19.689398 63.294384,18.762157 61.182297,19.451572 
	C57.536186,20.641712 54.324959,23.164148 50.615135,25.310492 
	C62.390491,32.031906 73.609062,38.481297 84.896210,44.808338 
	C86.041763,45.450481 87.937439,45.997837 88.907112,45.488651 
	C92.526970,43.587830 95.906105,41.228596 99.920067,38.698055 
	C95.465889,36.137035 91.625008,33.928646 87.170593,31.310019 
z"/>
<path fill="#252E3B" opacity="1.000000" stroke="none" 
	d="
M298.611877,44.255768 
	C299.378906,45.037777 299.945709,45.754395 299.947723,46.472591 
	C299.996979,64.087219 299.986237,81.702019 299.986237,99.666794 
	C294.524536,99.666794 289.286835,99.666794 283.622070,99.666794 
	C283.430756,97.676422 283.221954,95.504456 282.936462,92.534584 
	C277.396545,98.807869 271.000092,101.502121 263.456329,100.604912 
	C254.692810,99.562614 248.323822,94.840721 244.652298,86.821381 
	C240.263565,77.235580 240.409042,67.489296 244.311310,57.765228 
	C249.194855,45.595898 267.227875,36.430267 283.042877,51.001987 
	C283.218719,48.703545 283.374634,46.665035 283.563873,44.191109 
	C288.584717,44.191109 293.366608,44.191109 298.611877,44.255768 
M262.245758,61.788651 
	C261.473694,62.863853 260.528015,63.854572 259.957062,65.027657 
	C255.502060,74.180664 260.664185,85.206306 269.704163,85.961418 
	C275.403015,86.437447 280.214905,83.431160 282.262115,78.115707 
	C284.668793,71.866913 282.993164,64.369888 278.377045,60.733345 
	C273.750427,57.088539 268.576141,57.261173 262.245758,61.788651 
z"/>
<path fill="#252E3B" opacity="1.000000" stroke="none" 
	d="
M229.628754,67.612015 
	C220.909866,76.019295 210.102341,74.641403 199.362442,74.890686 
	C199.362442,83.214386 199.362442,91.297806 199.362442,99.694458 
	C193.592911,99.694458 188.211456,99.694458 182.563873,99.694458 
	C182.563873,76.554916 182.563873,53.521233 182.563873,30.508137 
	C194.155334,30.508137 205.771774,29.110626 216.909470,30.824436 
	C235.183884,33.636406 241.483002,52.821030 229.628754,67.612015 
M199.381699,44.155128 
	C199.381699,49.730961 199.381699,55.306789 199.381699,61.046131 
	C203.557526,61.046131 207.369476,61.269894 211.143936,60.989426 
	C215.851669,60.639606 218.146866,57.647087 218.476837,53.083042 
	C218.829132,48.210396 216.543045,44.657288 211.979050,44.006687 
	C208.080902,43.451012 204.065918,43.715012 199.381699,44.155128 
z"/>
<path fill="#252D3B" opacity="1.000000" stroke="none" 
	d="
M541.778442,74.041603 
	C535.749939,74.458237 530.143494,74.838219 523.991455,75.255188 
	C523.991455,79.356400 523.991455,83.468880 523.991455,87.581360 
	C523.991455,91.542664 523.991455,95.503967 523.991455,99.733551 
	C518.354309,99.733551 513.093933,99.733551 507.485992,99.733551 
	C507.485992,76.728020 507.485992,53.680717 507.485992,30.855930 
	C519.352417,30.855930 531.324890,29.931700 543.080933,31.130436 
	C553.652588,32.208393 559.716919,40.383125 560.260376,50.726036 
	C560.828918,61.546314 555.539795,69.582420 545.543945,73.047562 
	C544.450256,73.426697 543.315918,73.688652 541.778442,74.041603 
M523.965393,57.362202 
	C523.650452,59.889431 524.179138,61.528618 527.317200,61.231884 
	C529.782349,60.998779 532.291260,61.270344 534.769775,61.127522 
	C540.345276,60.806240 543.061096,58.093487 543.274475,52.814663 
	C543.489319,47.500420 541.041504,44.346264 535.588623,43.766167 
	C531.874023,43.370991 528.083435,43.690605 523.967468,43.690605 
	C523.967468,48.153419 523.967468,52.274616 523.965393,57.362202 
z"/>
<path fill="#242C3A" opacity="1.000000" stroke="none" 
	d="
M440.923676,100.820862 
	C422.387665,99.368866 412.345306,88.937775 412.473907,71.722641 
	C412.605591,54.093235 424.932587,42.432976 442.202881,43.601650 
	C459.746002,44.788792 469.917145,57.411705 467.660095,75.811897 
	C455.002411,75.811897 442.260162,75.811897 429.323578,75.811897 
	C429.462067,81.142456 431.455872,84.665718 436.079102,86.283012 
	C440.539978,87.843529 444.549164,87.173058 447.867615,83.453468 
	C448.651367,82.574966 449.947906,81.676743 451.041687,81.633942 
	C455.999115,81.439972 460.968445,81.549072 465.962891,81.549072 
	C465.018829,91.925232 455.959656,98.887840 440.923676,100.820862 
M442.092377,57.051998 
	C434.056366,57.024502 430.732910,59.559055 429.580902,66.722046 
	C436.649353,66.722046 443.692383,66.722046 450.873169,66.722046 
	C450.889954,61.034504 447.582001,58.510994 442.092377,57.051998 
z"/>
<path fill="#242D3B" opacity="1.000000" stroke="none" 
	d="
M614.281128,89.641747 
	C602.899048,71.346046 610.286316,49.835918 629.443665,44.571613 
	C645.386353,40.190655 661.123169,48.290653 665.400696,63.079365 
	C670.089783,79.290977 662.244751,94.685371 646.900269,99.383080 
	C634.715942,103.113312 622.567810,99.570114 614.281128,89.641747 
M634.312439,85.706703 
	C640.139404,86.841644 644.851135,85.277390 647.871643,79.921936 
	C650.617981,75.052528 650.018860,66.488312 646.751221,62.346260 
	C642.269104,56.664574 633.516968,56.583099 628.922485,62.180275 
	C623.300232,69.029495 625.716125,81.067818 634.312439,85.706703 
z"/>
<path fill="#252D3B" opacity="1.000000" stroke="none" 
	d="
M394.200745,64.169350 
	C390.866821,64.363388 388.697449,64.027321 386.608734,61.185318 
	C382.434479,55.505684 373.634216,57.040062 370.658203,63.739487 
	C368.181854,69.314117 368.183197,75.164070 370.770264,80.706093 
	C373.949310,87.516335 382.442657,88.241554 387.296204,82.516357 
	C388.372253,81.247025 390.354492,80.180000 391.994263,80.062416 
	C396.593506,79.732651 401.231781,79.947479 405.909790,79.947479 
	C403.918365,92.906067 391.788025,101.863434 378.158966,100.790009 
	C362.206055,99.533546 352.278107,88.978554 352.011108,72.990746 
	C351.741394,56.837585 360.982086,45.344563 375.414154,43.883427 
	C391.683289,42.236298 403.216339,49.680519 405.998108,64.169106 
	C402.158539,64.169106 398.411926,64.169106 394.200745,64.169350 
z"/>
<path fill="#27303D" opacity="1.000000" stroke="none" 
	d="
M603.705994,54.888855 
	C603.706055,57.326046 603.706055,59.287285 603.706055,61.833611 
	C601.506714,61.833611 599.738464,61.802799 597.971497,61.838863 
	C589.674683,62.008202 586.263672,65.419769 586.186340,73.832329 
	C586.108398,82.312149 586.169189,90.793243 586.169189,99.646469 
	C580.697144,99.646469 575.311340,99.646469 569.604858,99.646469 
	C569.604858,81.380600 569.604858,63.028145 569.604858,44.420616 
	C575.018494,44.420616 580.264221,44.420616 585.983521,44.420616 
	C585.983521,47.029438 585.983521,49.573811 585.983521,53.400532 
	C591.192505,47.795200 595.968506,43.556049 603.705933,43.968102 
	C603.705933,47.561405 603.705933,50.987156 603.705994,54.888855 
z"/>
<path fill="#242C3A" opacity="1.000000" stroke="none" 
	d="
M312.721863,79.999680 
	C312.721863,67.895737 312.721863,56.291706 312.721863,44.438347 
	C318.430237,44.438347 323.674591,44.438347 329.238800,44.438347 
	C329.405457,46.954514 329.567047,49.394802 329.776306,52.554283 
	C334.828156,47.967876 339.376923,43.206413 346.779907,44.117462 
	C346.779907,49.902027 346.779907,55.511978 346.779907,61.834328 
	C344.637146,61.834328 342.546112,61.765213 340.461029,61.846832 
	C333.206360,62.130817 329.785797,65.354408 329.584137,72.670357 
	C329.359650,80.816017 329.523560,88.972252 329.500641,97.123833 
	C329.498383,97.931107 329.372742,98.738037 329.285553,99.767242 
	C323.846527,99.767242 318.600616,99.767242 312.721893,99.767242 
	C312.721893,93.319641 312.721893,86.909615 312.721863,79.999680 
z"/>
<path fill="#202937" opacity="1.000000" stroke="none" 
	d="
M477.735352,59.999916 
	C477.735382,48.535461 477.735382,37.571011 477.735382,26.303677 
	C483.295227,26.303677 488.686798,26.303677 494.275085,26.303677 
	C494.275085,50.820396 494.275085,75.183243 494.275085,99.774338 
	C488.828827,99.774338 483.573425,99.774338 477.735321,99.774338 
	C477.735321,86.625114 477.735321,73.562515 477.735352,59.999916 
z"/>
<path fill="#FDFDFD" opacity="1.000000" stroke="none" 
	d="
M52.903816,107.168167 
	C43.936214,102.043755 35.363319,96.960884 26.628887,92.172691 
	C23.335329,90.367180 21.822680,88.162170 21.882130,84.315262 
	C22.064756,72.497879 21.948627,60.675873 21.948627,48.042103 
	C28.074821,51.714249 33.795265,55.090668 39.462029,58.554901 
	C44.983982,61.930607 50.512608,65.303993 55.891163,68.898560 
	C56.990410,69.633202 58.067719,71.337257 58.084911,72.608917 
	C58.249157,84.755753 58.183025,96.905701 58.183025,109.929085 
	C56.228733,108.901489 54.731495,108.114220 52.903816,107.168167 
z"/>
<path fill="#FDFDFD" opacity="1.000000" stroke="none" 
	d="
M90.774551,56.751335 
	C95.539574,53.812809 99.999557,51.074245 105.042473,47.977745 
	C105.042473,61.185085 105.167892,73.605049 104.900322,86.016541 
	C104.862434,87.774429 103.328278,90.190079 101.778725,91.114159 
	C91.149727,97.452751 80.332024,103.474907 68.830521,110.022858 
	C68.830521,96.789688 68.783348,84.260368 68.921913,71.733093 
	C68.932755,70.752502 70.034874,69.459625 70.978424,68.866035 
	C77.423286,64.811531 83.961449,60.905319 90.774551,56.751335 
z"/>
<path fill="#F9FAFA" opacity="1.000000" stroke="none" 
	d="
M48.874748,52.179344 
	C41.532597,47.658974 34.516823,43.300938 27.763672,39.106037 
	C35.358822,30.978491 42.706352,31.301670 51.330616,37.522003 
	C59.291172,43.263634 68.361069,47.467213 77.397583,52.607151 
	C73.550186,54.987652 70.371384,57.541920 66.748734,58.971367 
	C64.640442,59.803272 61.538975,59.473793 59.384315,58.527988 
	C55.779358,56.945564 52.574421,54.451839 48.874748,52.179344 
z"/>
<path fill="#F7F9F9" opacity="1.000000" stroke="none" 
	d="
M87.477364,31.515137 
	C91.625008,33.928646 95.465889,36.137035 99.920067,38.698055 
	C95.906105,41.228596 92.526970,43.587830 88.907112,45.488651 
	C87.937439,45.997837 86.041763,45.450481 84.896210,44.808338 
	C73.609062,38.481297 62.390491,32.031906 50.615135,25.310492 
	C54.324959,23.164148 57.536186,20.641712 61.182297,19.451572 
	C63.294384,18.762157 66.377449,19.689398 68.552223,20.806601 
	C74.885559,24.060106 80.981537,27.775654 87.477364,31.515137 
z"/>
<path fill="#F9F9FA" opacity="1.000000" stroke="none" 
	d="
M262.520264,61.520920 
	C268.576141,57.261173 273.750427,57.088539 278.377045,60.733345 
	C282.993164,64.369888 284.668793,71.866913 282.262115,78.115707 
	C280.214905,83.431160 275.403015,86.437447 269.704163,85.961418 
	C260.664185,85.206306 255.502060,74.180664 259.957062,65.027657 
	C260.528015,63.854572 261.473694,62.863853 262.520264,61.520920 
z"/>
<path fill="#F5F7F7" opacity="1.000000" stroke="none" 
	d="
M199.742157,43.885784 
	C204.065918,43.715012 208.080902,43.451012 211.979050,44.006687 
	C216.543045,44.657288 218.829132,48.210396 218.476837,53.083042 
	C218.146866,57.647087 215.851669,60.639606 211.143936,60.989426 
	C207.369476,61.269894 203.557526,61.046131 199.381699,61.046131 
	C199.381699,55.306789 199.381699,49.730961 199.742157,43.885784 
z"/>
<path fill="#F6F7F8" opacity="1.000000" stroke="none" 
	d="
M523.966431,56.879009 
	C523.967468,52.274616 523.967468,48.153419 523.967468,43.690605 
	C528.083435,43.690605 531.874023,43.370991 535.588623,43.766167 
	C541.041504,44.346264 543.489319,47.500420 543.274475,52.814663 
	C543.061096,58.093487 540.345276,60.806240 534.769775,61.127522 
	C532.291260,61.270344 529.782349,60.998779 527.317200,61.231884 
	C524.179138,61.528618 523.650452,59.889431 523.966431,56.879009 
z"/>
<path fill="#F4F6F8" opacity="1.000000" stroke="none" 
	d="
M442.499084,57.093727 
	C447.582001,58.510994 450.889954,61.034504 450.873169,66.722046 
	C443.692383,66.722046 436.649353,66.722046 429.580902,66.722046 
	C430.732910,59.559055 434.056366,57.024502 442.499084,57.093727 
z"/>
<path fill="#F8F9F9" opacity="1.000000" stroke="none" 
	d="
M633.944946,85.541412 
	C625.716125,81.067818 623.300232,69.029495 628.922485,62.180275 
	C633.516968,56.583099 642.269104,56.664574 646.751221,62.346260 
	C650.018860,66.488312 650.617981,75.052528 647.871643,79.921936 
	C644.851135,85.277390 640.139404,86.841644 633.944946,85.541412 
z"/>
</svg>